<mxfile host="www.draw.io" modified="2019-11-19T11:01:40.506Z" agent="Mozilla/5.0 (Windows NT 10.0; Win64; x64; rv:70.0) Gecko/20100101 Firefox/70.0" etag="viwW3wk3nxNs-nk5F5A0" version="12.2.6" type="github" pages="1">
  <diagram id="NdtcMeKmA7vI9ywesNi1" name="Page-1">
    <mxGraphModel dx="782" dy="410" grid="1" gridSize="10" guides="1" tooltips="1" connect="1" arrows="1" fold="1" page="1" pageScale="1" pageWidth="1169" pageHeight="827" math="0" shadow="0">
      <root>
        <mxCell id="0"/>
        <mxCell id="1" parent="0"/>
        <mxCell id="3M85THxdpjT1arWeWmKP-8" style="edgeStyle=orthogonalEdgeStyle;rounded=0;orthogonalLoop=1;jettySize=auto;html=1;exitX=0.5;exitY=1;exitDx=0;exitDy=0;entryX=0.5;entryY=0;entryDx=0;entryDy=0;" edge="1" parent="1" source="3M85THxdpjT1arWeWmKP-1" target="3M85THxdpjT1arWeWmKP-2">
          <mxGeometry relative="1" as="geometry"/>
        </mxCell>
        <mxCell id="3M85THxdpjT1arWeWmKP-1" value="Demande" style="rounded=1;whiteSpace=wrap;html=1;" vertex="1" parent="1">
          <mxGeometry x="400" y="40" width="140" height="60" as="geometry"/>
        </mxCell>
        <mxCell id="3M85THxdpjT1arWeWmKP-9" style="edgeStyle=orthogonalEdgeStyle;rounded=0;orthogonalLoop=1;jettySize=auto;html=1;exitX=0.5;exitY=1;exitDx=0;exitDy=0;entryX=0.5;entryY=0;entryDx=0;entryDy=0;" edge="1" parent="1" source="3M85THxdpjT1arWeWmKP-2" target="3M85THxdpjT1arWeWmKP-5">
          <mxGeometry relative="1" as="geometry"/>
        </mxCell>
        <mxCell id="3M85THxdpjT1arWeWmKP-12" style="edgeStyle=orthogonalEdgeStyle;rounded=0;orthogonalLoop=1;jettySize=auto;html=1;exitX=0;exitY=0.5;exitDx=0;exitDy=0;entryX=-0.007;entryY=0.4;entryDx=0;entryDy=0;entryPerimeter=0;" edge="1" parent="1" source="3M85THxdpjT1arWeWmKP-2" target="3M85THxdpjT1arWeWmKP-1">
          <mxGeometry relative="1" as="geometry"/>
        </mxCell>
        <mxCell id="3M85THxdpjT1arWeWmKP-16" style="rounded=0;orthogonalLoop=1;jettySize=auto;html=1;exitX=1;exitY=0.5;exitDx=0;exitDy=0;endArrow=none;endFill=0;" edge="1" parent="1" source="3M85THxdpjT1arWeWmKP-2">
          <mxGeometry relative="1" as="geometry">
            <mxPoint x="600" y="192" as="targetPoint"/>
          </mxGeometry>
        </mxCell>
        <mxCell id="3M85THxdpjT1arWeWmKP-2" value="&lt;div&gt;Vérification&lt;/div&gt;&lt;div&gt; demande&lt;/div&gt;" style="rhombus;whiteSpace=wrap;html=1;" vertex="1" parent="1">
          <mxGeometry x="410" y="130" width="120" height="120" as="geometry"/>
        </mxCell>
        <mxCell id="3M85THxdpjT1arWeWmKP-3" value="&lt;div align=&quot;left&quot;&gt;Mode opératoire&lt;/div&gt;&lt;div align=&quot;left&quot;&gt;Package&lt;/div&gt;&lt;div align=&quot;left&quot;&gt;Impact client : arrêt de service ?&lt;/div&gt;&lt;div align=&quot;left&quot;&gt;Heure de MEP ? &lt;br&gt;&lt;/div&gt;&lt;div align=&quot;left&quot;&gt;Contact en Support&lt;/div&gt;&lt;div align=&quot;left&quot;&gt;Roll back ?&lt;/div&gt;&lt;div align=&quot;left&quot;&gt;Vérifications post MEP&lt;br&gt;&lt;/div&gt;" style="shape=document;whiteSpace=wrap;html=1;boundedLbl=1;align=left;" vertex="1" parent="1">
          <mxGeometry x="600" y="130" width="210" height="180" as="geometry"/>
        </mxCell>
        <mxCell id="3M85THxdpjT1arWeWmKP-10" style="edgeStyle=orthogonalEdgeStyle;rounded=0;orthogonalLoop=1;jettySize=auto;html=1;exitX=0.5;exitY=1;exitDx=0;exitDy=0;entryX=0.5;entryY=0;entryDx=0;entryDy=0;" edge="1" parent="1" source="3M85THxdpjT1arWeWmKP-5" target="3M85THxdpjT1arWeWmKP-7">
          <mxGeometry relative="1" as="geometry"/>
        </mxCell>
        <mxCell id="3M85THxdpjT1arWeWmKP-5" value="Réalisation MEP" style="rounded=1;whiteSpace=wrap;html=1;" vertex="1" parent="1">
          <mxGeometry x="400" y="290" width="140" height="60" as="geometry"/>
        </mxCell>
        <mxCell id="3M85THxdpjT1arWeWmKP-11" style="edgeStyle=orthogonalEdgeStyle;rounded=0;orthogonalLoop=1;jettySize=auto;html=1;exitX=0;exitY=0.5;exitDx=0;exitDy=0;entryX=0.5;entryY=0;entryDx=0;entryDy=0;" edge="1" parent="1" source="3M85THxdpjT1arWeWmKP-7" target="3M85THxdpjT1arWeWmKP-13">
          <mxGeometry relative="1" as="geometry">
            <mxPoint x="350" y="450" as="targetPoint"/>
          </mxGeometry>
        </mxCell>
        <mxCell id="3M85THxdpjT1arWeWmKP-15" style="edgeStyle=orthogonalEdgeStyle;rounded=0;orthogonalLoop=1;jettySize=auto;html=1;exitX=0.5;exitY=1;exitDx=0;exitDy=0;entryX=0.5;entryY=0;entryDx=0;entryDy=0;" edge="1" parent="1" source="3M85THxdpjT1arWeWmKP-7" target="3M85THxdpjT1arWeWmKP-14">
          <mxGeometry relative="1" as="geometry"/>
        </mxCell>
        <mxCell id="3M85THxdpjT1arWeWmKP-7" value="Vérification" style="rhombus;whiteSpace=wrap;html=1;" vertex="1" parent="1">
          <mxGeometry x="410" y="390" width="120" height="120" as="geometry"/>
        </mxCell>
        <mxCell id="3M85THxdpjT1arWeWmKP-13" value="Roll Back ?" style="rhombus;whiteSpace=wrap;html=1;" vertex="1" parent="1">
          <mxGeometry x="230" y="510" width="120" height="120" as="geometry"/>
        </mxCell>
        <mxCell id="3M85THxdpjT1arWeWmKP-14" value="Cloture MEP" style="rounded=1;whiteSpace=wrap;html=1;" vertex="1" parent="1">
          <mxGeometry x="400" y="540" width="140" height="60" as="geometry"/>
        </mxCell>
      </root>
    </mxGraphModel>
  </diagram>
</mxfile>
